<svg width="234" height="71" viewBox="0 0 234 71" fill="none" xmlns="http://www.w3.org/2000/svg">
<path d="M35.0573 6.8V32H32.5013V11.84L22.6013 28.796H21.3413L11.4413 11.948V32H8.88525V6.8H11.0813L22.0253 25.484L32.8613 6.8H35.0573ZM50.4681 32.18C48.6441 32.18 47.0001 31.772 45.5361 30.956C44.0721 30.116 42.9201 28.964 42.0801 27.5C41.2401 26.036 40.8201 24.38 40.8201 22.532C40.8201 20.684 41.2401 19.028 42.0801 17.564C42.9201 16.1 44.0721 14.96 45.5361 14.144C47.0001 13.328 48.6441 12.92 50.4681 12.92C52.2921 12.92 53.9361 13.328 55.4001 14.144C56.8641 14.96 58.0041 16.1 58.8201 17.564C59.6601 19.028 60.0801 20.684 60.0801 22.532C60.0801 24.38 59.6601 26.036 58.8201 27.5C58.0041 28.964 56.8641 30.116 55.4001 30.956C53.9361 31.772 52.2921 32.18 50.4681 32.18ZM50.4681 29.912C51.8121 29.912 53.0121 29.612 54.0681 29.012C55.1481 28.388 55.9881 27.512 56.5881 26.384C57.1881 25.256 57.4881 23.972 57.4881 22.532C57.4881 21.092 57.1881 19.808 56.5881 18.68C55.9881 17.552 55.1481 16.688 54.0681 16.088C53.0121 15.464 51.8121 15.152 50.4681 15.152C49.1241 15.152 47.9121 15.464 46.8321 16.088C45.7761 16.688 44.9361 17.552 44.3121 18.68C43.7121 19.808 43.4121 21.092 43.4121 22.532C43.4121 23.972 43.7121 25.256 44.3121 26.384C44.9361 27.512 45.7761 28.388 46.8321 29.012C47.9121 29.612 49.1241 29.912 50.4681 29.912ZM80.683 13.064L72.259 32H69.631L61.243 13.064H63.907L70.999 29.192L78.163 13.064H80.683ZM84.2828 13.064H86.8388V32H84.2828V13.064ZM85.5788 8.924C85.0508 8.924 84.6068 8.744 84.2468 8.384C83.8868 8.024 83.7068 7.592 83.7068 7.088C83.7068 6.608 83.8868 6.188 84.2468 5.828C84.6068 5.468 85.0508 5.288 85.5788 5.288C86.1068 5.288 86.5508 5.468 86.9108 5.828C87.2708 6.164 87.4508 6.572 87.4508 7.052C87.4508 7.58 87.2708 8.024 86.9108 8.384C86.5508 8.744 86.1068 8.924 85.5788 8.924ZM110.439 23.324H94.5987C94.7427 25.292 95.4987 26.888 96.8667 28.112C98.2347 29.312 99.9627 29.912 102.051 29.912C103.227 29.912 104.307 29.708 105.291 29.3C106.275 28.868 107.127 28.244 107.847 27.428L109.287 29.084C108.447 30.092 107.391 30.86 106.119 31.388C104.871 31.916 103.491 32.18 101.979 32.18C100.035 32.18 98.3067 31.772 96.7947 30.956C95.3067 30.116 94.1427 28.964 93.3027 27.5C92.4627 26.036 92.0427 24.38 92.0427 22.532C92.0427 20.684 92.4387 19.028 93.2307 17.564C94.0467 16.1 95.1507 14.96 96.5427 14.144C97.9587 13.328 99.5427 12.92 101.295 12.92C103.047 12.92 104.619 13.328 106.011 14.144C107.403 14.96 108.495 16.1 109.287 17.564C110.079 19.004 110.475 20.66 110.475 22.532L110.439 23.324ZM101.295 15.116C99.4707 15.116 97.9347 15.704 96.6867 16.88C95.4627 18.032 94.7667 19.544 94.5987 21.416H108.027C107.859 19.544 107.151 18.032 105.903 16.88C104.679 15.704 103.143 15.116 101.295 15.116ZM118.881 9.104V19.004H131.913V21.308H118.881V32H116.217V6.8H133.497V9.104H118.881ZM138.107 13.064H140.663V32H138.107V13.064ZM139.403 8.924C138.875 8.924 138.431 8.744 138.071 8.384C137.711 8.024 137.531 7.592 137.531 7.088C137.531 6.608 137.711 6.188 138.071 5.828C138.431 5.468 138.875 5.288 139.403 5.288C139.931 5.288 140.375 5.468 140.735 5.828C141.095 6.164 141.275 6.572 141.275 7.052C141.275 7.58 141.095 8.024 140.735 8.384C140.375 8.744 139.931 8.924 139.403 8.924ZM157.423 12.92C159.799 12.92 161.683 13.616 163.075 15.008C164.491 16.376 165.199 18.38 165.199 21.02V32H162.643V21.272C162.643 19.304 162.151 17.804 161.167 16.772C160.183 15.74 158.779 15.224 156.955 15.224C154.915 15.224 153.295 15.836 152.095 17.06C150.919 18.26 150.331 19.928 150.331 22.064V32H147.775V13.064H150.223V16.556C150.919 15.404 151.879 14.516 153.103 13.892C154.351 13.244 155.791 12.92 157.423 12.92ZM189.489 5.288V32H187.041V28.256C186.273 29.528 185.253 30.5 183.981 31.172C182.733 31.844 181.317 32.18 179.733 32.18C177.957 32.18 176.349 31.772 174.909 30.956C173.469 30.14 172.341 29 171.525 27.536C170.709 26.072 170.301 24.404 170.301 22.532C170.301 20.66 170.709 18.992 171.525 17.528C172.341 16.064 173.469 14.936 174.909 14.144C176.349 13.328 177.957 12.92 179.733 12.92C181.269 12.92 182.649 13.244 183.873 13.892C185.121 14.516 186.141 15.44 186.933 16.664V5.288H189.489ZM179.949 29.912C181.269 29.912 182.457 29.612 183.513 29.012C184.593 28.388 185.433 27.512 186.033 26.384C186.657 25.256 186.969 23.972 186.969 22.532C186.969 21.092 186.657 19.808 186.033 18.68C185.433 17.552 184.593 16.688 183.513 16.088C182.457 15.464 181.269 15.152 179.949 15.152C178.605 15.152 177.393 15.464 176.313 16.088C175.257 16.688 174.417 17.552 173.793 18.68C173.193 19.808 172.893 21.092 172.893 22.532C172.893 23.972 173.193 25.256 173.793 26.384C174.417 27.512 175.257 28.388 176.313 29.012C177.393 29.612 178.605 29.912 179.949 29.912ZM213.095 23.324H197.255C197.399 25.292 198.155 26.888 199.523 28.112C200.891 29.312 202.619 29.912 204.707 29.912C205.883 29.912 206.963 29.708 207.947 29.3C208.931 28.868 209.783 28.244 210.503 27.428L211.943 29.084C211.103 30.092 210.047 30.86 208.775 31.388C207.527 31.916 206.147 32.18 204.635 32.18C202.691 32.18 200.963 31.772 199.451 30.956C197.963 30.116 196.799 28.964 195.959 27.5C195.119 26.036 194.699 24.38 194.699 22.532C194.699 20.684 195.095 19.028 195.887 17.564C196.703 16.1 197.807 14.96 199.199 14.144C200.615 13.328 202.199 12.92 203.951 12.92C205.703 12.92 207.275 13.328 208.667 14.144C210.059 14.96 211.151 16.1 211.943 17.564C212.735 19.004 213.131 20.66 213.131 22.532L213.095 23.324ZM203.951 15.116C202.127 15.116 200.591 15.704 199.343 16.88C198.119 18.032 197.423 19.544 197.255 21.416H210.683C210.515 19.544 209.807 18.032 208.559 16.88C207.335 15.704 205.799 15.116 203.951 15.116ZM220.782 16.772C221.382 15.5 222.27 14.54 223.446 13.892C224.646 13.244 226.122 12.92 227.874 12.92V15.404L227.262 15.368C225.27 15.368 223.71 15.98 222.582 17.204C221.454 18.428 220.89 20.144 220.89 22.352V32H218.334V13.064H220.782V16.772Z" fill="white"/>
<path d="M15.2637 51.3506C15.2637 52.7979 14.9326 53.9639 14.2705 54.8486C13.6084 55.7334 12.7119 56.1758 11.5811 56.1758C10.4268 56.1758 9.51855 55.8096 8.85645 55.0771V59.6562H7.23047V46.4902H8.71582L8.79492 47.5449C9.45703 46.7246 10.377 46.3145 11.5547 46.3145C12.6973 46.3145 13.5996 46.7451 14.2617 47.6064C14.9297 48.4678 15.2637 49.666 15.2637 51.2012V51.3506ZM13.6377 51.166C13.6377 50.0938 13.4092 49.2471 12.9521 48.626C12.4951 48.0049 11.8682 47.6943 11.0713 47.6943C10.0869 47.6943 9.34863 48.1309 8.85645 49.0039V53.5479C9.34277 54.415 10.0869 54.8486 11.0889 54.8486C11.8682 54.8486 12.4863 54.541 12.9434 53.9258C13.4062 53.3047 13.6377 52.3848 13.6377 51.166ZM16.9072 51.1572C16.9072 50.2256 17.0889 49.3877 17.4521 48.6436C17.8213 47.8994 18.3311 47.3252 18.9814 46.9209C19.6377 46.5166 20.3848 46.3145 21.2227 46.3145C22.5176 46.3145 23.5635 46.7627 24.3604 47.6592C25.1631 48.5557 25.5645 49.748 25.5645 51.2363V51.3506C25.5645 52.2764 25.3857 53.1084 25.0283 53.8467C24.6768 54.5791 24.1699 55.1504 23.5078 55.5605C22.8516 55.9707 22.0957 56.1758 21.2402 56.1758C19.9512 56.1758 18.9053 55.7275 18.1025 54.8311C17.3057 53.9346 16.9072 52.748 16.9072 51.2715V51.1572ZM18.542 51.3506C18.542 52.4053 18.7852 53.252 19.2715 53.8906C19.7637 54.5293 20.4199 54.8486 21.2402 54.8486C22.0664 54.8486 22.7227 54.5264 23.209 53.8818C23.6953 53.2314 23.9385 52.3232 23.9385 51.1572C23.9385 50.1143 23.6895 49.2705 23.1914 48.626C22.6992 47.9756 22.043 47.6504 21.2227 47.6504C20.4199 47.6504 19.7725 47.9697 19.2803 48.6084C18.7881 49.2471 18.542 50.1611 18.542 51.3506ZM36.0234 53.7588L37.8516 46.4902H39.4775L36.709 56H35.3906L33.0791 48.793L30.8291 56H29.5107L26.751 46.4902H28.3682L30.2402 53.6094L32.4551 46.4902H33.7646L36.0234 53.7588ZM45.085 56.1758C43.7959 56.1758 42.7471 55.7539 41.9385 54.9102C41.1299 54.0605 40.7256 52.9268 40.7256 51.5088V51.21C40.7256 50.2666 40.9043 49.4258 41.2617 48.6875C41.625 47.9434 42.1289 47.3633 42.7734 46.9473C43.4238 46.5254 44.127 46.3145 44.8828 46.3145C46.1191 46.3145 47.0801 46.7217 47.7656 47.5361C48.4512 48.3506 48.7939 49.5166 48.7939 51.0342V51.7109H42.3516C42.375 52.6484 42.6475 53.4072 43.1689 53.9873C43.6963 54.5615 44.3643 54.8486 45.1729 54.8486C45.7471 54.8486 46.2334 54.7314 46.6318 54.4971C47.0303 54.2627 47.3789 53.9521 47.6777 53.5654L48.6709 54.3389C47.874 55.5635 46.6787 56.1758 45.085 56.1758ZM44.8828 47.6504C44.2266 47.6504 43.6758 47.8906 43.2305 48.3711C42.7852 48.8457 42.5098 49.5137 42.4043 50.375H47.168V50.252C47.1211 49.4258 46.8984 48.7871 46.5 48.3359C46.1016 47.8789 45.5625 47.6504 44.8828 47.6504ZM55.2803 47.9492C55.0342 47.9082 54.7676 47.8877 54.4805 47.8877C53.4141 47.8877 52.6904 48.3418 52.3096 49.25V56H50.6836V46.4902H52.2656L52.292 47.5889C52.8252 46.7393 53.5811 46.3145 54.5596 46.3145C54.876 46.3145 55.1162 46.3555 55.2803 46.4375V47.9492ZM60.5537 56.1758C59.2646 56.1758 58.2158 55.7539 57.4072 54.9102C56.5986 54.0605 56.1943 52.9268 56.1943 51.5088V51.21C56.1943 50.2666 56.373 49.4258 56.7305 48.6875C57.0938 47.9434 57.5977 47.3633 58.2422 46.9473C58.8926 46.5254 59.5957 46.3145 60.3516 46.3145C61.5879 46.3145 62.5488 46.7217 63.2344 47.5361C63.9199 48.3506 64.2627 49.5166 64.2627 51.0342V51.7109H57.8203C57.8438 52.6484 58.1162 53.4072 58.6377 53.9873C59.165 54.5615 59.833 54.8486 60.6416 54.8486C61.2158 54.8486 61.7021 54.7314 62.1006 54.4971C62.499 54.2627 62.8477 53.9521 63.1465 53.5654L64.1396 54.3389C63.3428 55.5635 62.1475 56.1758 60.5537 56.1758ZM60.3516 47.6504C59.6953 47.6504 59.1445 47.8906 58.6992 48.3711C58.2539 48.8457 57.9785 49.5137 57.873 50.375H62.6367V50.252C62.5898 49.4258 62.3672 48.7871 61.9688 48.3359C61.5703 47.8789 61.0312 47.6504 60.3516 47.6504ZM65.7568 51.166C65.7568 49.707 66.1025 48.5352 66.7939 47.6504C67.4854 46.7598 68.3906 46.3145 69.5098 46.3145C70.623 46.3145 71.5049 46.6953 72.1553 47.457V42.5H73.7812V56H72.2871L72.208 54.9805C71.5576 55.7773 70.6523 56.1758 69.4922 56.1758C68.3906 56.1758 67.4912 55.7246 66.7939 54.8223C66.1025 53.9199 65.7568 52.7422 65.7568 51.2891V51.166ZM67.3828 51.3506C67.3828 52.4287 67.6055 53.2725 68.0508 53.8818C68.4961 54.4912 69.1113 54.7959 69.8965 54.7959C70.9277 54.7959 71.6807 54.333 72.1553 53.4072V49.0391C71.6689 48.1426 70.9219 47.6943 69.9141 47.6943C69.1172 47.6943 68.4961 48.002 68.0508 48.6172C67.6055 49.2324 67.3828 50.1436 67.3828 51.3506ZM88.8281 51.3506C88.8281 52.8037 88.4941 53.9727 87.8262 54.8574C87.1582 55.7363 86.2617 56.1758 85.1367 56.1758C83.9355 56.1758 83.0068 55.751 82.3506 54.9014L82.2715 56H80.7773V42.5H82.4033V47.5361C83.0596 46.7217 83.9648 46.3145 85.1191 46.3145C86.2734 46.3145 87.1787 46.751 87.835 47.624C88.4971 48.4971 88.8281 49.6924 88.8281 51.21V51.3506ZM87.2021 51.166C87.2021 50.0586 86.9883 49.2031 86.5605 48.5996C86.1328 47.9961 85.5176 47.6943 84.7148 47.6943C83.6426 47.6943 82.8721 48.1924 82.4033 49.1885V53.3018C82.9014 54.2979 83.6777 54.7959 84.7324 54.7959C85.5117 54.7959 86.1182 54.4941 86.5518 53.8906C86.9854 53.2871 87.2021 52.3789 87.2021 51.166ZM93.8906 53.6182L96.1055 46.4902H97.8457L94.0225 57.4678C93.4307 59.0498 92.4902 59.8408 91.2012 59.8408L90.8936 59.8145L90.2871 59.7002V58.3818L90.7266 58.417C91.2773 58.417 91.7051 58.3057 92.0098 58.083C92.3203 57.8604 92.5752 57.4531 92.7744 56.8613L93.1348 55.8945L89.7422 46.4902H91.5176L93.8906 53.6182ZM113.868 50.0146C113.868 51.2686 113.657 52.3643 113.235 53.3018C112.813 54.2334 112.216 54.9453 111.442 55.4375C110.669 55.9297 109.767 56.1758 108.735 56.1758C107.728 56.1758 106.834 55.9297 106.055 55.4375C105.275 54.9395 104.669 54.2334 104.235 53.3193C103.808 52.3994 103.588 51.3359 103.576 50.1289V49.2061C103.576 47.9756 103.79 46.8887 104.218 45.9453C104.646 45.002 105.249 44.2812 106.028 43.7832C106.813 43.2793 107.71 43.0273 108.718 43.0273C109.743 43.0273 110.646 43.2764 111.425 43.7744C112.21 44.2666 112.813 44.9844 113.235 45.9277C113.657 46.8652 113.868 47.958 113.868 49.2061V50.0146ZM112.189 49.1885C112.189 47.6709 111.885 46.5078 111.275 45.6992C110.666 44.8848 109.813 44.4775 108.718 44.4775C107.651 44.4775 106.811 44.8848 106.195 45.6992C105.586 46.5078 105.272 47.6328 105.255 49.0742V50.0146C105.255 51.4854 105.562 52.6426 106.178 53.4863C106.799 54.3242 107.651 54.7432 108.735 54.7432C109.825 54.7432 110.669 54.3477 111.267 53.5566C111.864 52.7598 112.172 51.6201 112.189 50.1377V49.1885ZM118.579 43.2031L122.763 53.6445L126.946 43.2031H129.135V56H127.447V51.0166L127.605 45.6377L123.404 56H122.112L117.92 45.6641L118.087 51.0166V56H116.399V43.2031H118.579ZM132.114 56V43.2031H135.727C136.84 43.2031 137.824 43.4492 138.68 43.9414C139.535 44.4336 140.194 45.1338 140.657 46.042C141.126 46.9502 141.363 47.9932 141.369 49.1709V49.9883C141.369 51.1953 141.135 52.2529 140.666 53.1611C140.203 54.0693 139.538 54.7666 138.671 55.2529C137.81 55.7393 136.805 55.9883 135.656 56H132.114ZM133.802 44.5918V54.6201H135.577C136.878 54.6201 137.889 54.2158 138.609 53.4072C139.336 52.5986 139.699 51.4473 139.699 49.9531V49.2061C139.699 47.7529 139.356 46.625 138.671 45.8223C137.991 45.0137 137.024 44.6035 135.771 44.5918H133.802ZM151.723 51.3506C151.723 52.8037 151.389 53.9727 150.721 54.8574C150.053 55.7363 149.156 56.1758 148.031 56.1758C146.83 56.1758 145.901 55.751 145.245 54.9014L145.166 56H143.672V42.5H145.298V47.5361C145.954 46.7217 146.859 46.3145 148.014 46.3145C149.168 46.3145 150.073 46.751 150.729 47.624C151.392 48.4971 151.723 49.6924 151.723 51.21V51.3506ZM150.097 51.166C150.097 50.0586 149.883 49.2031 149.455 48.5996C149.027 47.9961 148.412 47.6943 147.609 47.6943C146.537 47.6943 145.767 48.1924 145.298 49.1885V53.3018C145.796 54.2979 146.572 54.7959 147.627 54.7959C148.406 54.7959 149.013 54.4941 149.446 53.8906C149.88 53.2871 150.097 52.3789 150.097 51.166Z" fill="#ACACAC"/>
</svg>
